<?xml version="1.0" encoding="UTF-8"?>
<svg xmlns="http://www.w3.org/2000/svg" viewBox="0 0 800 500">
  <style>
    text { font-family: system-ui, -apple-system, sans-serif; }
  </style>
  <rect width="100%" height="100%" fill="white" />
  <text x="400" y="25" text-anchor="middle" font-size="16" font-weight="bold">CDD Pattern Analysis: Confidence Trajectory vs Answer Correctness</text>
  <rect x="70" y="166.66666666666669" width="76.75" height="253.33333333333331" fill="#4ade80" /><rect x="148.75" y="293.33333333333337" width="76.75" height="126.66666666666666" fill="#f87171" /><line x1="70" y1="293.33333333333337" x2="227.5" y2="293.33333333333337" stroke="#fbbf24" stroke-width="3" stroke-dasharray="5,3" /><text x="109.375" y="161.66666666666669" text-anchor="middle" font-size="10">16</text><text x="188.125" y="288.33333333333337" text-anchor="middle" font-size="10">8</text><rect x="247.5" y="293.33333333333337" width="76.75" height="126.66666666666666" fill="#4ade80" /><rect x="326.25" y="420" width="76.75" height="0" fill="#f87171" /><line x1="247.5" y1="420" x2="405" y2="420" stroke="#fbbf24" stroke-width="3" stroke-dasharray="5,3" /><text x="286.875" y="288.33333333333337" text-anchor="middle" font-size="10">8</text><text x="365.625" y="415" text-anchor="middle" font-size="10">0</text><rect x="425" y="420" width="76.75" height="0" fill="#4ade80" /><rect x="503.75" y="293.33333333333337" width="76.75" height="126.66666666666666" fill="#f87171" /><line x1="425" y1="420" x2="582.5" y2="420" stroke="#fbbf24" stroke-width="3" stroke-dasharray="5,3" /><text x="464.375" y="415" text-anchor="middle" font-size="10">0</text><text x="543.125" y="288.33333333333337" text-anchor="middle" font-size="10">8</text><rect x="602.5" y="420" width="76.75" height="0" fill="#4ade80" /><rect x="681.25" y="293.33333333333337" width="76.75" height="126.66666666666666" fill="#f87171" /><line x1="602.5" y1="420" x2="760" y2="420" stroke="#fbbf24" stroke-width="3" stroke-dasharray="5,3" /><text x="641.875" y="415" text-anchor="middle" font-size="10">0</text><text x="720.625" y="288.33333333333337" text-anchor="middle" font-size="10">8</text><line x1="55" y1="40" x2="770" y2="40" stroke="#e5e7eb" /><text x="50" y="44" text-anchor="end" font-size="10">24</text><line x1="55" y1="116" x2="770" y2="116" stroke="#e5e7eb" /><text x="50" y="120" text-anchor="end" font-size="10">19</text><line x1="55" y1="192" x2="770" y2="192" stroke="#e5e7eb" /><text x="50" y="196" text-anchor="end" font-size="10">14</text><line x1="55" y1="268" x2="770" y2="268" stroke="#e5e7eb" /><text x="50" y="272" text-anchor="end" font-size="10">10</text><line x1="55" y1="344" x2="770" y2="344" stroke="#e5e7eb" /><text x="50" y="348" text-anchor="end" font-size="10">5</text><line x1="55" y1="420" x2="770" y2="420" stroke="#e5e7eb" /><text x="50" y="424" text-anchor="end" font-size="10">0</text>
  <text x="148.75" y="440" text-anchor="middle" font-size="11" transform="rotate(-30, 148.75, 440)">v_shaped</text><text x="326.25" y="440" text-anchor="middle" font-size="11" transform="rotate(-30, 326.25, 440)">improving</text><text x="503.75" y="440" text-anchor="middle" font-size="11" transform="rotate(-30, 503.75, 440)">stable</text><text x="681.25" y="440" text-anchor="middle" font-size="11" transform="rotate(-30, 681.25, 440)">declining</text>
  
    <rect x="650" y="40" width="12" height="12" fill="#4ade80" />
    <text x="667" y="51" font-size="11">Correct</text>
    <rect x="650" y="58" width="12" height="12" fill="#f87171" />
    <text x="667" y="69" font-size="11">Wrong</text>
    <line x1="650" y1="82" x2="662" y2="82" stroke="#fbbf24" stroke-width="3" stroke-dasharray="5,3" />
    <text x="667" y="87" font-size="11">CDD Flagged</text>
  
  
    <rect x="60" y="465" width="710" height="30" fill="#f3f4f6" rx="4" />
    <text x="70" y="485" font-size="12">
      Precision: 100.0%  |  Recall: 33.3%  |  F1: 50.0%  |  Accuracy: 66.7%
    </text>
  
</svg>