<?xml version="1.0" encoding="UTF-8"?>
<svg xmlns="http://www.w3.org/2000/svg" viewBox="0 0 800 500">
  <style>
    text { font-family: system-ui, -apple-system, sans-serif; }
  </style>
  <rect width="100%" height="100%" fill="white" />
  <text x="400" y="25" text-anchor="middle" font-size="16" font-weight="bold">CDD Pattern Analysis: Confidence Trajectory vs Answer Correctness</text>
  <rect x="70" y="166.66666666666669" width="59" height="253.33333333333331" fill="#4ade80" /><rect x="131" y="293.33333333333337" width="59" height="126.66666666666666" fill="#f87171" /><line x1="70" y1="293.33333333333337" x2="192" y2="293.33333333333337" stroke="#fbbf24" stroke-width="3" stroke-dasharray="5,3" /><text x="100.5" y="161.66666666666669" text-anchor="middle" font-size="10">16</text><text x="161.5" y="288.33333333333337" text-anchor="middle" font-size="10">8</text><rect x="212" y="293.33333333333337" width="59" height="126.66666666666666" fill="#4ade80" /><rect x="273" y="293.33333333333337" width="59" height="126.66666666666666" fill="#f87171" /><line x1="212" y1="293.33333333333337" x2="334" y2="293.33333333333337" stroke="#fbbf24" stroke-width="3" stroke-dasharray="5,3" /><text x="242.5" y="288.33333333333337" text-anchor="middle" font-size="10">8</text><text x="303.5" y="288.33333333333337" text-anchor="middle" font-size="10">8</text><rect x="354" y="293.33333333333337" width="59" height="126.66666666666666" fill="#4ade80" /><rect x="415" y="420" width="59" height="0" fill="#f87171" /><line x1="354" y1="420" x2="476" y2="420" stroke="#fbbf24" stroke-width="3" stroke-dasharray="5,3" /><text x="384.5" y="288.33333333333337" text-anchor="middle" font-size="10">8</text><text x="445.5" y="415" text-anchor="middle" font-size="10">0</text><rect x="496" y="420" width="59" height="0" fill="#4ade80" /><rect x="557" y="293.33333333333337" width="59" height="126.66666666666666" fill="#f87171" /><line x1="496" y1="293.33333333333337" x2="618" y2="293.33333333333337" stroke="#fbbf24" stroke-width="3" stroke-dasharray="5,3" /><text x="526.5" y="415" text-anchor="middle" font-size="10">0</text><text x="587.5" y="288.33333333333337" text-anchor="middle" font-size="10">8</text><rect x="638" y="420" width="59" height="0" fill="#4ade80" /><rect x="699" y="293.33333333333337" width="59" height="126.66666666666666" fill="#f87171" /><line x1="638" y1="293.33333333333337" x2="760" y2="293.33333333333337" stroke="#fbbf24" stroke-width="3" stroke-dasharray="5,3" /><text x="668.5" y="415" text-anchor="middle" font-size="10">0</text><text x="729.5" y="288.33333333333337" text-anchor="middle" font-size="10">8</text><line x1="55" y1="40" x2="770" y2="40" stroke="#e5e7eb" /><text x="50" y="44" text-anchor="end" font-size="10">24</text><line x1="55" y1="116" x2="770" y2="116" stroke="#e5e7eb" /><text x="50" y="120" text-anchor="end" font-size="10">19</text><line x1="55" y1="192" x2="770" y2="192" stroke="#e5e7eb" /><text x="50" y="196" text-anchor="end" font-size="10">14</text><line x1="55" y1="268" x2="770" y2="268" stroke="#e5e7eb" /><text x="50" y="272" text-anchor="end" font-size="10">10</text><line x1="55" y1="344" x2="770" y2="344" stroke="#e5e7eb" /><text x="50" y="348" text-anchor="end" font-size="10">5</text><line x1="55" y1="420" x2="770" y2="420" stroke="#e5e7eb" /><text x="50" y="424" text-anchor="end" font-size="10">0</text>
  <text x="131" y="440" text-anchor="middle" font-size="11" transform="rotate(-30, 131, 440)">v_shaped</text><text x="273" y="440" text-anchor="middle" font-size="11" transform="rotate(-30, 273, 440)">cliff</text><text x="415" y="440" text-anchor="middle" font-size="11" transform="rotate(-30, 415, 440)">improving</text><text x="557" y="440" text-anchor="middle" font-size="11" transform="rotate(-30, 557, 440)">stable_overconfident</text><text x="699" y="440" text-anchor="middle" font-size="11" transform="rotate(-30, 699, 440)">declining</text>
  
    <rect x="650" y="40" width="12" height="12" fill="#4ade80" />
    <text x="667" y="51" font-size="11">Correct</text>
    <rect x="650" y="58" width="12" height="12" fill="#f87171" />
    <text x="667" y="69" font-size="11">Wrong</text>
    <line x1="650" y1="82" x2="662" y2="82" stroke="#fbbf24" stroke-width="3" stroke-dasharray="5,3" />
    <text x="667" y="87" font-size="11">CDD Flagged</text>
  
  
    <rect x="60" y="465" width="710" height="30" fill="#f3f4f6" rx="4" />
    <text x="70" y="485" font-size="12">
      Precision: 100.0%  |  Recall: 100.0%  |  F1: 100.0%  |  Accuracy: 100.0%
    </text>
  
</svg>